<?xml version="1.0" encoding="UTF-8" standalone="no"?>
<!DOCTYPE svg PUBLIC "-//W3C//DTD SVG 1.1//EN"
 "http://www.w3.org/Graphics/SVG/1.1/DTD/svg11.dtd">
<!-- Generated by graphviz version 12.2.1 (20250203.1708)
 -->
<!-- Title: G Pages: 1 -->
<svg width="339pt" height="550pt"
 viewBox="0.00 0.00 339.42 550.50" xmlns="http://www.w3.org/2000/svg" xmlns:xlink="http://www.w3.org/1999/xlink">
<g id="graph0" class="graph" transform="scale(1 1) rotate(0) translate(4 546.5)">
<title>G</title><style>.edge>path:hover{stroke-width:8}</style>
<polygon fill="white" stroke="none" points="-4,4 -4,-546.5 335.42,-546.5 335.42,4 -4,4"/>
<!-- dmu_workflow_cache -->
<g id="node1" class="node">
<title>dmu_workflow_cache</title><style>.edge>path:hover{stroke-width:8}</style>
<ellipse fill="#c24747" stroke="black" cx="129.13" cy="-511.39" rx="39.95" ry="31.11"/>
<text text-anchor="middle" x="129.13" y="-519.89" font-family="Helvetica,sans-Serif" font-size="10.00" fill="#ffffff">dmu.</text>
<text text-anchor="middle" x="129.13" y="-507.89" font-family="Helvetica,sans-Serif" font-size="10.00" fill="#ffffff">workflow.</text>
<text text-anchor="middle" x="129.13" y="-495.89" font-family="Helvetica,sans-Serif" font-size="10.00" fill="#ffffff">cache</text>
</g>
<!-- rx_misid_mc_scaler -->
<g id="node2" class="node">
<title>rx_misid_mc_scaler</title><style>.edge>path:hover{stroke-width:8}</style>
<ellipse fill="#40bfc0" stroke="black" cx="43.13" cy="-266.39" rx="43.13" ry="22.63"/>
<text text-anchor="middle" x="43.13" y="-268.89" font-family="Helvetica,sans-Serif" font-size="10.00" fill="#000000">rx_misid.</text>
<text text-anchor="middle" x="43.13" y="-256.89" font-family="Helvetica,sans-Serif" font-size="10.00" fill="#000000">mc_scaler</text>
</g>
<!-- dmu_workflow_cache&#45;&gt;rx_misid_mc_scaler -->
<g id="edge1" class="edge">
<title>dmu_workflow_cache&#45;&gt;rx_misid_mc_scaler</title><style>.edge>path:hover{stroke-width:8}</style>
<path fill="none" stroke="black" d="M133.96,-480.29C136.17,-459.3 136.83,-430.94 129.13,-407.27"/>
<path fill="none" stroke="black" d="M129.13,-406.27C116.1,-375.08 82.05,-397.59 62.13,-370.27 47.5,-350.22 43.08,-322.25 42.13,-300.53"/>
<polygon fill="#c24747" stroke="black" points="45.64,-300.65 41.95,-290.72 38.64,-300.78 45.64,-300.65"/>
</g>
<!-- rx_misid_sample_splitter -->
<g id="node8" class="node">
<title>rx_misid_sample_splitter</title><style>.edge>path:hover{stroke-width:8}</style>
<ellipse fill="#40bfc0" stroke="black" cx="129.13" cy="-347.65" rx="57.98" ry="22.63"/>
<text text-anchor="middle" x="129.13" y="-350.15" font-family="Helvetica,sans-Serif" font-size="10.00" fill="#000000">rx_misid.</text>
<text text-anchor="middle" x="129.13" y="-338.15" font-family="Helvetica,sans-Serif" font-size="10.00" fill="#000000">sample_splitter</text>
</g>
<!-- dmu_workflow_cache&#45;&gt;rx_misid_sample_splitter -->
<g id="edge2" class="edge">
<title>dmu_workflow_cache&#45;&gt;rx_misid_sample_splitter</title><style>.edge>path:hover{stroke-width:8}</style>
<path fill="none" stroke="black" d="M129.13,-406.27C126.64,-398.6 125.72,-390.05 125.62,-381.93"/>
<polygon fill="#c24747" stroke="black" points="129.12,-382.11 125.94,-372 122.12,-381.89 129.12,-382.11"/>
</g>
<!-- rx_misid_misid_pdf -->
<g id="node6" class="node">
<title>rx_misid_misid_pdf</title><style>.edge>path:hover{stroke-width:8}</style>
<ellipse fill="#46a4a4" stroke="black" cx="125.13" cy="-22.63" rx="41.01" ry="22.63"/>
<text text-anchor="middle" x="125.13" y="-25.13" font-family="Helvetica,sans-Serif" font-size="10.00" fill="#000000">rx_misid.</text>
<text text-anchor="middle" x="125.13" y="-13.13" font-family="Helvetica,sans-Serif" font-size="10.00" fill="#000000">misid_pdf</text>
</g>
<!-- rx_misid_mc_scaler&#45;&gt;rx_misid_misid_pdf -->
<g id="edge3" class="edge">
<title>rx_misid_mc_scaler&#45;&gt;rx_misid_misid_pdf</title><style>.edge>path:hover{stroke-width:8}</style>
<path fill="none" stroke="black" d="M40.59,-243.59C37.4,-207.66 35.26,-134.65 62.13,-81.25 68.64,-68.33 79.35,-56.87 90.11,-47.66"/>
<polygon fill="#40bfc0" stroke="black" points="92.29,-50.39 97.89,-41.4 87.9,-44.94 92.29,-50.39"/>
</g>
<!-- rx_misid_misid_calculator -->
<g id="node3" class="node">
<title>rx_misid_misid_calculator</title><style>.edge>path:hover{stroke-width:8}</style>
<ellipse fill="#31c4c4" stroke="black" cx="198.13" cy="-266.39" rx="61.16" ry="22.63"/>
<text text-anchor="middle" x="198.13" y="-268.89" font-family="Helvetica,sans-Serif" font-size="10.00" fill="#000000">rx_misid.</text>
<text text-anchor="middle" x="198.13" y="-256.89" font-family="Helvetica,sans-Serif" font-size="10.00" fill="#000000">misid_calculator</text>
</g>
<!-- rx_misid_misid_dataset -->
<g id="node4" class="node">
<title>rx_misid_misid_dataset</title><style>.edge>path:hover{stroke-width:8}</style>
<ellipse fill="#40bfc0" stroke="black" cx="125.13" cy="-103.88" rx="54.27" ry="22.63"/>
<text text-anchor="middle" x="125.13" y="-106.38" font-family="Helvetica,sans-Serif" font-size="10.00" fill="#000000">rx_misid.</text>
<text text-anchor="middle" x="125.13" y="-94.38" font-family="Helvetica,sans-Serif" font-size="10.00" fill="#000000">misid_dataset</text>
</g>
<!-- rx_misid_misid_calculator&#45;&gt;rx_misid_misid_dataset -->
<g id="edge4" class="edge">
<title>rx_misid_misid_calculator&#45;&gt;rx_misid_misid_dataset</title><style>.edge>path:hover{stroke-width:8}</style>
<path fill="none" stroke="black" d="M188.29,-243.74C175.74,-216.14 153.94,-168.21 139.52,-136.52"/>
<polygon fill="#31c4c4" stroke="black" points="142.89,-135.47 135.57,-127.82 136.52,-138.37 142.89,-135.47"/>
</g>
<!-- rx_misid_pdf_maker -->
<g id="node7" class="node">
<title>rx_misid_pdf_maker</title><style>.edge>path:hover{stroke-width:8}</style>
<ellipse fill="#40bfc0" stroke="black" cx="231.13" cy="-185.14" rx="43.66" ry="22.63"/>
<text text-anchor="middle" x="231.13" y="-187.64" font-family="Helvetica,sans-Serif" font-size="10.00" fill="#000000">rx_misid.</text>
<text text-anchor="middle" x="231.13" y="-175.64" font-family="Helvetica,sans-Serif" font-size="10.00" fill="#000000">pdf_maker</text>
</g>
<!-- rx_misid_misid_calculator&#45;&gt;rx_misid_pdf_maker -->
<g id="edge5" class="edge">
<title>rx_misid_misid_calculator&#45;&gt;rx_misid_pdf_maker</title><style>.edge>path:hover{stroke-width:8}</style>
<path fill="none" stroke="black" d="M207.15,-243.74C210.42,-235.87 214.2,-226.81 217.77,-218.24"/>
<polygon fill="#31c4c4" stroke="black" points="220.93,-219.74 221.55,-209.16 214.47,-217.05 220.93,-219.74"/>
</g>
<!-- rx_misid_misid_dataset&#45;&gt;rx_misid_misid_pdf -->
<g id="edge6" class="edge">
<title>rx_misid_misid_dataset&#45;&gt;rx_misid_misid_pdf</title><style>.edge>path:hover{stroke-width:8}</style>
<path fill="none" stroke="black" d="M125.13,-80.81C125.13,-73.42 125.13,-65.01 125.13,-56.97"/>
<polygon fill="#40bfc0" stroke="black" points="128.63,-57.1 125.13,-47.1 121.63,-57.1 128.63,-57.1"/>
</g>
<!-- rx_misid_misid_fitter -->
<g id="node5" class="node">
<title>rx_misid_misid_fitter</title><style>.edge>path:hover{stroke-width:8}</style>
<ellipse fill="#40bfc0" stroke="black" cx="243.13" cy="-103.88" rx="45.25" ry="22.63"/>
<text text-anchor="middle" x="243.13" y="-106.38" font-family="Helvetica,sans-Serif" font-size="10.00" fill="#000000">rx_misid.</text>
<text text-anchor="middle" x="243.13" y="-94.38" font-family="Helvetica,sans-Serif" font-size="10.00" fill="#000000">misid_fitter</text>
</g>
<!-- rx_misid_misid_fitter&#45;&gt;rx_misid_misid_pdf -->
<g id="edge7" class="edge">
<title>rx_misid_misid_fitter&#45;&gt;rx_misid_misid_pdf</title><style>.edge>path:hover{stroke-width:8}</style>
<path fill="none" stroke="black" d="M216.65,-85.1C199.87,-73.83 177.99,-59.13 159.83,-46.93"/>
<polygon fill="#40bfc0" stroke="black" points="162.23,-44.32 151.97,-41.65 158.32,-50.14 162.23,-44.32"/>
</g>
<!-- rx_misid_pdf_maker&#45;&gt;rx_misid_misid_fitter -->
<g id="edge8" class="edge">
<title>rx_misid_pdf_maker&#45;&gt;rx_misid_misid_fitter</title><style>.edge>path:hover{stroke-width:8}</style>
<path fill="none" stroke="black" d="M234.41,-162.48C235.55,-154.94 236.86,-146.3 238.11,-138.05"/>
<polygon fill="#40bfc0" stroke="black" points="241.55,-138.7 239.59,-128.28 234.63,-137.65 241.55,-138.7"/>
</g>
<!-- rx_misid_sample_splitter&#45;&gt;rx_misid_misid_calculator -->
<g id="edge9" class="edge">
<title>rx_misid_sample_splitter&#45;&gt;rx_misid_misid_calculator</title><style>.edge>path:hover{stroke-width:8}</style>
<path fill="none" stroke="black" d="M147.26,-325.82C154.97,-316.97 164.09,-306.5 172.46,-296.88"/>
<polygon fill="#40bfc0" stroke="black" points="174.97,-299.33 178.89,-289.49 169.69,-294.74 174.97,-299.33"/>
</g>
<!-- rx_misid_sample_weighter -->
<g id="node9" class="node">
<title>rx_misid_sample_weighter</title><style>.edge>path:hover{stroke-width:8}</style>
<ellipse fill="#47c2c2" stroke="black" cx="268.13" cy="-347.65" rx="63.29" ry="22.63"/>
<text text-anchor="middle" x="268.13" y="-350.15" font-family="Helvetica,sans-Serif" font-size="10.00" fill="#000000">rx_misid.</text>
<text text-anchor="middle" x="268.13" y="-338.15" font-family="Helvetica,sans-Serif" font-size="10.00" fill="#000000">sample_weighter</text>
</g>
<!-- rx_misid_sample_weighter&#45;&gt;rx_misid_misid_calculator -->
<g id="edge10" class="edge">
<title>rx_misid_sample_weighter&#45;&gt;rx_misid_misid_calculator</title><style>.edge>path:hover{stroke-width:8}</style>
<path fill="none" stroke="black" d="M249.74,-325.82C241.93,-316.97 232.67,-306.5 224.17,-296.88"/>
<polygon fill="#47c2c2" stroke="black" points="226.89,-294.66 217.65,-289.49 221.64,-299.3 226.89,-294.66"/>
</g>
</g>
</svg>
