<?xml version="1.0" encoding="UTF-8" standalone="no"?>
<!DOCTYPE svg PUBLIC "-//W3C//DTD SVG 1.1//EN"
 "http://www.w3.org/Graphics/SVG/1.1/DTD/svg11.dtd">
<!-- Generated by graphviz version 12.2.1 (20250203.1708)
 -->
<!-- Title: G Pages: 1 -->
<svg width="242pt" height="378pt"
 viewBox="0.00 0.00 242.10 378.27" xmlns="http://www.w3.org/2000/svg" xmlns:xlink="http://www.w3.org/1999/xlink">
<g id="graph0" class="graph" transform="scale(1 1) rotate(0) translate(4 374.27)">
<title>G</title><style>.edge>path:hover{stroke-width:8}</style>
<polygon fill="white" stroke="none" points="-4,4 -4,-374.27 238.1,-374.27 238.1,4 -4,4"/>
<!-- fitter_base_fitter -->
<g id="node1" class="node">
<title>fitter_base_fitter</title><style>.edge>path:hover{stroke-width:8}</style>
<ellipse fill="#ce3b3b" stroke="black" cx="43.66" cy="-266.39" rx="43.66" ry="22.63"/>
<text text-anchor="middle" x="43.66" y="-268.89" font-family="Helvetica,sans-Serif" font-size="10.00" fill="#ffffff">fitter.</text>
<text text-anchor="middle" x="43.66" y="-256.89" font-family="Helvetica,sans-Serif" font-size="10.00" fill="#ffffff">base_fitter</text>
</g>
<!-- fitter_data_fitter -->
<g id="node3" class="node">
<title>fitter_data_fitter</title><style>.edge>path:hover{stroke-width:8}</style>
<ellipse fill="#ac4949" stroke="black" cx="88.66" cy="-22.63" rx="42.07" ry="22.63"/>
<text text-anchor="middle" x="88.66" y="-25.13" font-family="Helvetica,sans-Serif" font-size="10.00" fill="#ffffff">fitter.</text>
<text text-anchor="middle" x="88.66" y="-13.13" font-family="Helvetica,sans-Serif" font-size="10.00" fill="#ffffff">data_fitter</text>
</g>
<!-- fitter_base_fitter&#45;&gt;fitter_data_fitter -->
<g id="edge1" class="edge">
<title>fitter_base_fitter&#45;&gt;fitter_data_fitter</title><style>.edge>path:hover{stroke-width:8}</style>
<path fill="none" stroke="black" d="M47.74,-243.51C55.65,-201.01 73.14,-107.05 82.49,-56.82"/>
<polygon fill="#ce3b3b" stroke="black" points="85.9,-57.59 84.29,-47.12 79.02,-56.31 85.9,-57.59"/>
</g>
<!-- fitter_sim_fitter -->
<g id="node5" class="node">
<title>fitter_sim_fitter</title><style>.edge>path:hover{stroke-width:8}</style>
<ellipse fill="#b83d3d" stroke="black" cx="134.66" cy="-185.14" rx="39.95" ry="22.63"/>
<text text-anchor="middle" x="134.66" y="-187.64" font-family="Helvetica,sans-Serif" font-size="10.00" fill="#ffffff">fitter.</text>
<text text-anchor="middle" x="134.66" y="-175.64" font-family="Helvetica,sans-Serif" font-size="10.00" fill="#ffffff">sim_fitter</text>
</g>
<!-- fitter_base_fitter&#45;&gt;fitter_sim_fitter -->
<g id="edge2" class="edge">
<title>fitter_base_fitter&#45;&gt;fitter_sim_fitter</title><style>.edge>path:hover{stroke-width:8}</style>
<path fill="none" stroke="black" d="M65.23,-246.61C77.1,-236.27 92.01,-223.28 104.97,-212"/>
<polygon fill="#ce3b3b" stroke="black" points="107.18,-214.71 112.43,-205.51 102.59,-209.43 107.18,-214.71"/>
</g>
<!-- fitter_base_model -->
<g id="node2" class="node">
<title>fitter_base_model</title><style>.edge>path:hover{stroke-width:8}</style>
<ellipse fill="#ce3b3b" stroke="black" cx="185.66" cy="-347.65" rx="48.44" ry="22.63"/>
<text text-anchor="middle" x="185.66" y="-350.15" font-family="Helvetica,sans-Serif" font-size="10.00" fill="#ffffff">fitter.</text>
<text text-anchor="middle" x="185.66" y="-338.15" font-family="Helvetica,sans-Serif" font-size="10.00" fill="#ffffff">base_model</text>
</g>
<!-- fitter_data_model -->
<g id="node4" class="node">
<title>fitter_data_model</title><style>.edge>path:hover{stroke-width:8}</style>
<ellipse fill="#b83d3d" stroke="black" cx="134.66" cy="-103.88" rx="46.85" ry="22.63"/>
<text text-anchor="middle" x="134.66" y="-106.38" font-family="Helvetica,sans-Serif" font-size="10.00" fill="#ffffff">fitter.</text>
<text text-anchor="middle" x="134.66" y="-94.38" font-family="Helvetica,sans-Serif" font-size="10.00" fill="#ffffff">data_model</text>
</g>
<!-- fitter_base_model&#45;&gt;fitter_data_model -->
<g id="edge3" class="edge">
<title>fitter_base_model&#45;&gt;fitter_data_model</title><style>.edge>path:hover{stroke-width:8}</style>
<path fill="none" stroke="black" d="M194.09,-325.12C197.83,-314.44 201.8,-301.25 203.66,-289.02 206.7,-269.14 206.09,-263.73 203.66,-243.76 199.19,-206.84 200.61,-195.62 183.66,-162.51 178.28,-151.99 170.62,-141.74 162.96,-132.88"/>
<polygon fill="#ce3b3b" stroke="black" points="165.71,-130.69 156.4,-125.64 160.52,-135.4 165.71,-130.69"/>
</g>
<!-- fitter_sim_model -->
<g id="node6" class="node">
<title>fitter_sim_model</title><style>.edge>path:hover{stroke-width:8}</style>
<ellipse fill="#c04040" stroke="black" cx="149.66" cy="-266.39" rx="44.72" ry="22.63"/>
<text text-anchor="middle" x="149.66" y="-268.89" font-family="Helvetica,sans-Serif" font-size="10.00" fill="#ffffff">fitter.</text>
<text text-anchor="middle" x="149.66" y="-256.89" font-family="Helvetica,sans-Serif" font-size="10.00" fill="#ffffff">sim_model</text>
</g>
<!-- fitter_base_model&#45;&gt;fitter_sim_model -->
<g id="edge4" class="edge">
<title>fitter_base_model&#45;&gt;fitter_sim_model</title><style>.edge>path:hover{stroke-width:8}</style>
<path fill="none" stroke="black" d="M176.02,-325.41C172.37,-317.39 168.15,-308.08 164.16,-299.3"/>
<polygon fill="#ce3b3b" stroke="black" points="167.41,-298 160.09,-290.34 161.04,-300.9 167.41,-298"/>
</g>
<!-- fitter_data_model&#45;&gt;fitter_data_fitter -->
<g id="edge5" class="edge">
<title>fitter_data_model&#45;&gt;fitter_data_fitter</title><style>.edge>path:hover{stroke-width:8}</style>
<path fill="none" stroke="black" d="M122.34,-81.64C117.5,-73.31 111.86,-63.59 106.59,-54.52"/>
<polygon fill="#b83d3d" stroke="black" points="109.67,-52.85 101.63,-45.96 103.62,-56.36 109.67,-52.85"/>
</g>
<!-- fitter_sim_fitter&#45;&gt;fitter_data_model -->
<g id="edge6" class="edge">
<title>fitter_sim_fitter&#45;&gt;fitter_data_model</title><style>.edge>path:hover{stroke-width:8}</style>
<path fill="none" stroke="black" d="M134.66,-162.06C134.66,-154.67 134.66,-146.27 134.66,-138.22"/>
<polygon fill="#b83d3d" stroke="black" points="138.16,-138.35 134.66,-128.35 131.16,-138.35 138.16,-138.35"/>
</g>
<!-- fitter_sim_model&#45;&gt;fitter_sim_fitter -->
<g id="edge7" class="edge">
<title>fitter_sim_model&#45;&gt;fitter_sim_fitter</title><style>.edge>path:hover{stroke-width:8}</style>
<path fill="none" stroke="black" d="M145.57,-243.74C144.14,-236.2 142.5,-227.56 140.94,-219.3"/>
<polygon fill="#c04040" stroke="black" points="144.39,-218.7 139.09,-209.53 137.51,-220.01 144.39,-218.7"/>
</g>
</g>
</svg>
