<?xml version="1.0" encoding="UTF-8" standalone="no"?>
<!DOCTYPE svg PUBLIC "-//W3C//DTD SVG 1.1//EN"
 "http://www.w3.org/Graphics/SVG/1.1/DTD/svg11.dtd">
<!-- Generated by graphviz version 12.2.1 (20250203.1708)
 -->
<!-- Title: G Pages: 1 -->
<svg width="557pt" height="639pt"
 viewBox="0.00 0.00 557.10 639.01" xmlns="http://www.w3.org/2000/svg" xmlns:xlink="http://www.w3.org/1999/xlink">
<g id="graph0" class="graph" transform="scale(1 1) rotate(0) translate(4 635.01)">
<title>G</title><style>.edge>path:hover{stroke-width:8}</style>
<polygon fill="white" stroke="none" points="-4,4 -4,-635.01 553.1,-635.01 553.1,4 -4,4"/>
<!-- dmu_workflow_cache -->
<g id="node1" class="node">
<title>dmu_workflow_cache</title><style>.edge>path:hover{stroke-width:8}</style>
<ellipse fill="#c24747" stroke="black" cx="196.97" cy="-599.9" rx="39.95" ry="31.11"/>
<text text-anchor="middle" x="196.97" y="-608.4" font-family="Helvetica,sans-Serif" font-size="10.00" fill="#ffffff">dmu.</text>
<text text-anchor="middle" x="196.97" y="-596.4" font-family="Helvetica,sans-Serif" font-size="10.00" fill="#ffffff">workflow.</text>
<text text-anchor="middle" x="196.97" y="-584.4" font-family="Helvetica,sans-Serif" font-size="10.00" fill="#ffffff">cache</text>
</g>
<!-- rx_misid_mc_scaler -->
<g id="node5" class="node">
<title>rx_misid_mc_scaler</title><style>.edge>path:hover{stroke-width:8}</style>
<ellipse fill="#3ab0b0" stroke="black" cx="505.97" cy="-266.39" rx="43.13" ry="22.63"/>
<text text-anchor="middle" x="505.97" y="-268.89" font-family="Helvetica,sans-Serif" font-size="10.00" fill="#000000">rx_misid.</text>
<text text-anchor="middle" x="505.97" y="-256.89" font-family="Helvetica,sans-Serif" font-size="10.00" fill="#000000">mc_scaler</text>
</g>
<!-- dmu_workflow_cache&#45;&gt;rx_misid_mc_scaler -->
<g id="edge1" class="edge">
<title>dmu_workflow_cache&#45;&gt;rx_misid_mc_scaler</title><style>.edge>path:hover{stroke-width:8}</style>
<path fill="none" stroke="black" d="M236.96,-595.44C308.55,-588.38 454.23,-569.75 486.97,-532.78 541.51,-471.19 467.41,-421.32 505.97,-348.65"/>
</g>
<!-- rx_misid_splitter -->
<g id="node12" class="node">
<title>rx_misid_splitter</title><style>.edge>path:hover{stroke-width:8}</style>
<ellipse fill="#40bfc0" stroke="black" cx="166.97" cy="-347.65" rx="39.42" ry="22.63"/>
<text text-anchor="middle" x="166.97" y="-350.15" font-family="Helvetica,sans-Serif" font-size="10.00" fill="#000000">rx_misid.</text>
<text text-anchor="middle" x="166.97" y="-338.15" font-family="Helvetica,sans-Serif" font-size="10.00" fill="#000000">splitter</text>
</g>
<!-- dmu_workflow_cache&#45;&gt;rx_misid_splitter -->
<g id="edge2" class="edge">
<title>dmu_workflow_cache&#45;&gt;rx_misid_splitter</title><style>.edge>path:hover{stroke-width:8}</style>
<path fill="none" stroke="black" d="M189.85,-569.09C187.36,-557.77 184.75,-544.74 182.97,-532.78 175.15,-480.23 170.75,-418.63 168.62,-381.67"/>
<polygon fill="#c24747" stroke="black" points="172.14,-381.88 168.09,-372.08 165.15,-382.26 172.14,-381.88"/>
</g>
<!-- rx_data_path_splitter -->
<g id="node2" class="node">
<title>rx_data_path_splitter</title><style>.edge>path:hover{stroke-width:8}</style>
<ellipse fill="#80b34c" stroke="black" cx="48.97" cy="-510.16" rx="48.97" ry="22.63"/>
<text text-anchor="middle" x="48.97" y="-512.66" font-family="Helvetica,sans-Serif" font-size="10.00" fill="#000000">rx_data.</text>
<text text-anchor="middle" x="48.97" y="-500.66" font-family="Helvetica,sans-Serif" font-size="10.00" fill="#000000">path_splitter</text>
</g>
<!-- rx_data_rdf_getter -->
<g id="node3" class="node">
<title>rx_data_rdf_getter</title><style>.edge>path:hover{stroke-width:8}</style>
<ellipse fill="#80c040" stroke="black" cx="233.97" cy="-428.9" rx="40.48" ry="22.63"/>
<text text-anchor="middle" x="233.97" y="-431.4" font-family="Helvetica,sans-Serif" font-size="10.00" fill="#000000">rx_data.</text>
<text text-anchor="middle" x="233.97" y="-419.4" font-family="Helvetica,sans-Serif" font-size="10.00" fill="#000000">rdf_getter</text>
</g>
<!-- rx_data_path_splitter&#45;&gt;rx_data_rdf_getter -->
<g id="edge3" class="edge">
<title>rx_data_path_splitter&#45;&gt;rx_data_rdf_getter</title><style>.edge>path:hover{stroke-width:8}</style>
<path fill="none" stroke="black" d="M84.2,-494.06C114.81,-480.95 159.22,-461.92 191.73,-448"/>
<polygon fill="#80b34c" stroke="black" points="193.06,-451.24 200.87,-444.08 190.3,-444.8 193.06,-451.24"/>
</g>
<!-- rx_data_rdf_getter&#45;&gt;rx_misid_mc_scaler -->
<g id="edge4" class="edge">
<title>rx_data_rdf_getter&#45;&gt;rx_misid_mc_scaler</title><style>.edge>path:hover{stroke-width:8}</style>
<path fill="none" stroke="black" d="M271.58,-420.04C343.57,-404.55 494.76,-369.77 505.97,-348.65"/>
<path fill="none" stroke="black" d="M505.97,-346.65C513.35,-332.74 514.13,-315.43 512.74,-300.54"/>
<polygon fill="#80c040" stroke="black" points="516.22,-300.19 511.44,-290.73 509.28,-301.1 516.22,-300.19"/>
</g>
<!-- rx_misid_misid_calculator -->
<g id="node6" class="node">
<title>rx_misid_misid_calculator</title><style>.edge>path:hover{stroke-width:8}</style>
<ellipse fill="#2db4b4" stroke="black" cx="320.97" cy="-266.39" rx="61.16" ry="22.63"/>
<text text-anchor="middle" x="320.97" y="-268.89" font-family="Helvetica,sans-Serif" font-size="10.00" fill="#000000">rx_misid.</text>
<text text-anchor="middle" x="320.97" y="-256.89" font-family="Helvetica,sans-Serif" font-size="10.00" fill="#000000">misid_calculator</text>
</g>
<!-- rx_data_rdf_getter&#45;&gt;rx_misid_misid_calculator -->
<g id="edge5" class="edge">
<title>rx_data_rdf_getter&#45;&gt;rx_misid_misid_calculator</title><style>.edge>path:hover{stroke-width:8}</style>
<path fill="none" stroke="black" d="M233.83,-405.96C234.62,-384.07 238.4,-350.16 252.97,-325.02 260,-312.89 270.57,-302.12 281.3,-293.28"/>
<polygon fill="#80c040" stroke="black" points="283.33,-296.14 289.08,-287.24 279.03,-290.61 283.33,-296.14"/>
</g>
<!-- rx_data_utilities -->
<g id="node4" class="node">
<title>rx_data_utilities</title><style>.edge>path:hover{stroke-width:8}</style>
<ellipse fill="#85c247" stroke="black" cx="92.97" cy="-599.9" rx="36.24" ry="22.63"/>
<text text-anchor="middle" x="92.97" y="-602.4" font-family="Helvetica,sans-Serif" font-size="10.00" fill="#000000">rx_data.</text>
<text text-anchor="middle" x="92.97" y="-590.4" font-family="Helvetica,sans-Serif" font-size="10.00" fill="#000000">utilities</text>
</g>
<!-- rx_data_utilities&#45;&gt;rx_data_path_splitter -->
<g id="edge6" class="edge">
<title>rx_data_utilities&#45;&gt;rx_data_path_splitter</title><style>.edge>path:hover{stroke-width:8}</style>
<path fill="none" stroke="black" d="M82.54,-578.1C77.29,-567.63 70.8,-554.7 64.94,-543"/>
<polygon fill="#85c247" stroke="black" points="68.07,-541.44 60.46,-534.07 61.81,-544.58 68.07,-541.44"/>
</g>
<!-- rx_selection_selection -->
<g id="node13" class="node">
<title>rx_selection_selection</title><style>.edge>path:hover{stroke-width:8}</style>
<ellipse fill="#753ab0" stroke="black" cx="417.97" cy="-428.9" rx="50.56" ry="22.63"/>
<text text-anchor="middle" x="417.97" y="-431.4" font-family="Helvetica,sans-Serif" font-size="10.00" fill="#ffffff">rx_selection.</text>
<text text-anchor="middle" x="417.97" y="-419.4" font-family="Helvetica,sans-Serif" font-size="10.00" fill="#ffffff">selection</text>
</g>
<!-- rx_data_utilities&#45;&gt;rx_selection_selection -->
<g id="edge7" class="edge">
<title>rx_data_utilities&#45;&gt;rx_selection_selection</title><style>.edge>path:hover{stroke-width:8}</style>
<path fill="none" stroke="black" d="M104.02,-578.2C118.65,-552.84 146.87,-510.45 182.97,-487.53 211.99,-469.1 299.99,-450.67 359.67,-439.79"/>
<polygon fill="#85c247" stroke="black" points="360.12,-443.26 369.34,-438.04 358.88,-436.37 360.12,-443.26"/>
</g>
<!-- rx_misid_misid_pdf -->
<g id="node9" class="node">
<title>rx_misid_misid_pdf</title><style>.edge>path:hover{stroke-width:8}</style>
<ellipse fill="#46a4a4" stroke="black" cx="432.97" cy="-22.63" rx="41.01" ry="22.63"/>
<text text-anchor="middle" x="432.97" y="-25.13" font-family="Helvetica,sans-Serif" font-size="10.00" fill="#000000">rx_misid.</text>
<text text-anchor="middle" x="432.97" y="-13.13" font-family="Helvetica,sans-Serif" font-size="10.00" fill="#000000">misid_pdf</text>
</g>
<!-- rx_misid_mc_scaler&#45;&gt;rx_misid_misid_pdf -->
<g id="edge8" class="edge">
<title>rx_misid_mc_scaler&#45;&gt;rx_misid_misid_pdf</title><style>.edge>path:hover{stroke-width:8}</style>
<path fill="none" stroke="black" d="M508.07,-243.53C510.57,-207.81 511.7,-135.5 486.97,-81.25 481.61,-69.51 472.89,-58.6 464,-49.51"/>
<polygon fill="#3ab0b0" stroke="black" points="466.61,-47.17 456.97,-42.75 461.75,-52.21 466.61,-47.17"/>
</g>
<!-- rx_misid_misid_dataset -->
<g id="node7" class="node">
<title>rx_misid_misid_dataset</title><style>.edge>path:hover{stroke-width:8}</style>
<ellipse fill="#40bfc0" stroke="black" cx="314.97" cy="-103.88" rx="54.27" ry="22.63"/>
<text text-anchor="middle" x="314.97" y="-106.38" font-family="Helvetica,sans-Serif" font-size="10.00" fill="#000000">rx_misid.</text>
<text text-anchor="middle" x="314.97" y="-94.38" font-family="Helvetica,sans-Serif" font-size="10.00" fill="#000000">misid_dataset</text>
</g>
<!-- rx_misid_misid_calculator&#45;&gt;rx_misid_misid_dataset -->
<g id="edge9" class="edge">
<title>rx_misid_misid_calculator&#45;&gt;rx_misid_misid_dataset</title><style>.edge>path:hover{stroke-width:8}</style>
<path fill="none" stroke="black" d="M320.15,-243.41C319.13,-216.23 317.39,-169.71 316.21,-138.15"/>
<polygon fill="#2db4b4" stroke="black" points="319.72,-138.23 315.85,-128.37 312.72,-138.49 319.72,-138.23"/>
</g>
<!-- rx_misid_pdf_maker -->
<g id="node10" class="node">
<title>rx_misid_pdf_maker</title><style>.edge>path:hover{stroke-width:8}</style>
<ellipse fill="#40bfc0" stroke="black" cx="410.97" cy="-185.14" rx="43.66" ry="22.63"/>
<text text-anchor="middle" x="410.97" y="-187.64" font-family="Helvetica,sans-Serif" font-size="10.00" fill="#000000">rx_misid.</text>
<text text-anchor="middle" x="410.97" y="-175.64" font-family="Helvetica,sans-Serif" font-size="10.00" fill="#000000">pdf_maker</text>
</g>
<!-- rx_misid_misid_calculator&#45;&gt;rx_misid_pdf_maker -->
<g id="edge10" class="edge">
<title>rx_misid_misid_calculator&#45;&gt;rx_misid_pdf_maker</title><style>.edge>path:hover{stroke-width:8}</style>
<path fill="none" stroke="black" d="M344.14,-244.98C355.38,-235.09 369,-223.09 381.01,-212.52"/>
<polygon fill="#2db4b4" stroke="black" points="383.09,-215.35 388.28,-206.12 378.46,-210.1 383.09,-215.35"/>
</g>
<!-- rx_misid_misid_dataset&#45;&gt;rx_misid_misid_pdf -->
<g id="edge11" class="edge">
<title>rx_misid_misid_dataset&#45;&gt;rx_misid_misid_pdf</title><style>.edge>path:hover{stroke-width:8}</style>
<path fill="none" stroke="black" d="M342.93,-84.1C359.49,-72.98 380.61,-58.79 398.24,-46.95"/>
<polygon fill="#40bfc0" stroke="black" points="400.01,-49.98 406.36,-41.5 396.11,-44.17 400.01,-49.98"/>
</g>
<!-- rx_misid_misid_fitter -->
<g id="node8" class="node">
<title>rx_misid_misid_fitter</title><style>.edge>path:hover{stroke-width:8}</style>
<ellipse fill="#40bfc0" stroke="black" cx="432.97" cy="-103.88" rx="45.25" ry="22.63"/>
<text text-anchor="middle" x="432.97" y="-106.38" font-family="Helvetica,sans-Serif" font-size="10.00" fill="#000000">rx_misid.</text>
<text text-anchor="middle" x="432.97" y="-94.38" font-family="Helvetica,sans-Serif" font-size="10.00" fill="#000000">misid_fitter</text>
</g>
<!-- rx_misid_misid_fitter&#45;&gt;rx_misid_misid_pdf -->
<g id="edge12" class="edge">
<title>rx_misid_misid_fitter&#45;&gt;rx_misid_misid_pdf</title><style>.edge>path:hover{stroke-width:8}</style>
<path fill="none" stroke="black" d="M432.97,-80.81C432.97,-73.42 432.97,-65.01 432.97,-56.97"/>
<polygon fill="#40bfc0" stroke="black" points="436.47,-57.1 432.97,-47.1 429.47,-57.1 436.47,-57.1"/>
</g>
<!-- rx_misid_pdf_maker&#45;&gt;rx_misid_misid_fitter -->
<g id="edge13" class="edge">
<title>rx_misid_pdf_maker&#45;&gt;rx_misid_misid_fitter</title><style>.edge>path:hover{stroke-width:8}</style>
<path fill="none" stroke="black" d="M416.98,-162.48C419.1,-154.86 421.52,-146.1 423.84,-137.76"/>
<polygon fill="#40bfc0" stroke="black" points="427.18,-138.82 426.48,-128.25 420.43,-136.95 427.18,-138.82"/>
</g>
<!-- rx_misid_sample_weighter -->
<g id="node11" class="node">
<title>rx_misid_sample_weighter</title><style>.edge>path:hover{stroke-width:8}</style>
<ellipse fill="#47c2c2" stroke="black" cx="324.97" cy="-347.65" rx="63.29" ry="22.63"/>
<text text-anchor="middle" x="324.97" y="-350.15" font-family="Helvetica,sans-Serif" font-size="10.00" fill="#000000">rx_misid.</text>
<text text-anchor="middle" x="324.97" y="-338.15" font-family="Helvetica,sans-Serif" font-size="10.00" fill="#000000">sample_weighter</text>
</g>
<!-- rx_misid_sample_weighter&#45;&gt;rx_misid_misid_calculator -->
<g id="edge14" class="edge">
<title>rx_misid_sample_weighter&#45;&gt;rx_misid_misid_calculator</title><style>.edge>path:hover{stroke-width:8}</style>
<path fill="none" stroke="black" d="M323.85,-324.57C323.48,-317.18 323.06,-308.78 322.65,-300.73"/>
<polygon fill="#47c2c2" stroke="black" points="326.15,-300.67 322.15,-290.86 319.16,-301.03 326.15,-300.67"/>
</g>
<!-- rx_misid_splitter&#45;&gt;rx_misid_misid_calculator -->
<g id="edge15" class="edge">
<title>rx_misid_splitter&#45;&gt;rx_misid_misid_calculator</title><style>.edge>path:hover{stroke-width:8}</style>
<path fill="none" stroke="black" d="M195.93,-331.74C218.55,-320.1 250.36,-303.73 276.24,-290.41"/>
<polygon fill="#40bfc0" stroke="black" points="277.56,-293.67 284.85,-285.98 274.36,-287.44 277.56,-293.67"/>
</g>
<!-- rx_selection_selection&#45;&gt;rx_misid_mc_scaler -->
<g id="edge16" class="edge">
<title>rx_selection_selection&#45;&gt;rx_misid_mc_scaler</title><style>.edge>path:hover{stroke-width:8}</style>
<path fill="none" stroke="black" d="M446.64,-410.09C466.7,-396 492.28,-374.44 505.97,-348.65"/>
</g>
<!-- rx_selection_selection&#45;&gt;rx_misid_misid_calculator -->
<g id="edge17" class="edge">
<title>rx_selection_selection&#45;&gt;rx_misid_misid_calculator</title><style>.edge>path:hover{stroke-width:8}</style>
<path fill="none" stroke="black" d="M417.9,-406.18C416.88,-384.15 412.6,-349.86 396.97,-325.02 388.74,-311.95 376.43,-300.76 364.1,-291.81"/>
<polygon fill="#753ab0" stroke="black" points="366.21,-289.01 355.98,-286.26 362.26,-294.79 366.21,-289.01"/>
</g>
<!-- rx_selection_truth_matching -->
<g id="node14" class="node">
<title>rx_selection_truth_matching</title><style>.edge>path:hover{stroke-width:8}</style>
<ellipse fill="#8553b6" stroke="black" cx="420.97" cy="-510.16" rx="56.92" ry="22.63"/>
<text text-anchor="middle" x="420.97" y="-512.66" font-family="Helvetica,sans-Serif" font-size="10.00" fill="#ffffff">rx_selection.</text>
<text text-anchor="middle" x="420.97" y="-500.66" font-family="Helvetica,sans-Serif" font-size="10.00" fill="#ffffff">truth_matching</text>
</g>
<!-- rx_selection_truth_matching&#45;&gt;rx_selection_selection -->
<g id="edge18" class="edge">
<title>rx_selection_truth_matching&#45;&gt;rx_selection_selection</title><style>.edge>path:hover{stroke-width:8}</style>
<path fill="none" stroke="black" d="M420.13,-487.08C419.85,-479.69 419.53,-471.29 419.23,-463.24"/>
<polygon fill="#8553b6" stroke="black" points="422.73,-463.23 418.86,-453.37 415.74,-463.5 422.73,-463.23"/>
</g>
<!-- rx_selection_version_management -->
<g id="node15" class="node">
<title>rx_selection_version_management</title><style>.edge>path:hover{stroke-width:8}</style>
<ellipse fill="#8553b6" stroke="black" cx="268.97" cy="-510.16" rx="77.07" ry="22.63"/>
<text text-anchor="middle" x="268.97" y="-512.66" font-family="Helvetica,sans-Serif" font-size="10.00" fill="#ffffff">rx_selection.</text>
<text text-anchor="middle" x="268.97" y="-500.66" font-family="Helvetica,sans-Serif" font-size="10.00" fill="#ffffff">version_management</text>
</g>
<!-- rx_selection_version_management&#45;&gt;rx_selection_selection -->
<g id="edge19" class="edge">
<title>rx_selection_version_management&#45;&gt;rx_selection_selection</title><style>.edge>path:hover{stroke-width:8}</style>
<path fill="none" stroke="black" d="M305.42,-489.77C326.93,-478.32 354.24,-463.8 376.57,-451.92"/>
<polygon fill="#8553b6" stroke="black" points="377.92,-455.17 385.1,-447.38 374.63,-448.99 377.92,-455.17"/>
</g>
</g>
</svg>
